<svg width="57" height="57" viewBox="0 0 57 57" fill="none" xmlns="http://www.w3.org/2000/svg">
<g clip-path="url(#clip0_15_1071)">
<path d="M39.4016 29.3117C40.0643 28.6197 40.0643 27.4959 39.4016 26.8039L30.9194 17.9465C30.2568 17.2545 29.1806 17.2545 28.5179 17.9465C27.8553 18.6385 27.8553 19.7623 28.5179 20.4542L34.1109 26.2891H17.8463C16.908 26.2891 16.1499 27.0807 16.1499 28.0606C16.1499 29.0404 16.908 29.8321 17.8463 29.8321H34.1056L28.5232 35.6669C27.8606 36.3589 27.8606 37.4827 28.5232 38.1747C29.1859 38.8667 30.2621 38.8667 30.9247 38.1747L39.4069 29.3172L39.4016 29.3117Z" fill="white"/>
</g>
<circle cx="28.5" cy="28.5" r="26" stroke="white" stroke-width="5"/>
<defs>
<clipPath id="clip0_15_1071">
<rect width="23.75" height="28.3439" fill="white" transform="translate(16.1499 13.8887)"/>
</clipPath>
</defs>
</svg>
