<svg width="57" height="41" viewBox="0 0 57 41" fill="none" xmlns="http://www.w3.org/2000/svg">
<path d="M5.29487 0C2.37166 0 0 2.29557 0 5.125C0 6.73724 0.783199 8.25338 2.11795 9.225L26.1214 26.65C27.3789 27.5576 29.0997 27.5576 30.3573 26.65L54.3607 9.225C55.6954 8.25338 56.4786 6.73724 56.4786 5.125C56.4786 2.29557 54.1069 0 51.1837 0H5.29487ZM0 11.9583V34.1667C0 37.9357 3.16589 41 7.05983 41H49.4188C53.3127 41 56.4786 37.9357 56.4786 34.1667V11.9583L32.4752 29.3833C29.9601 31.2091 26.5185 31.2091 24.0034 29.3833L0 11.9583Z" fill="black"/>
</svg>
